<?xml version="1.0" encoding="UTF-8"?>
<svg id="Layer_1" xmlns="http://www.w3.org/2000/svg" version="1.1" viewBox="50 145 865 610">
  <!-- Generator: Adobe Illustrator 29.3.1, SVG Export Plug-In . SVG Version: 2.1.0 Build 151)  -->
  <defs>
    <style>
      .st0 {
        fill: #231f20;
      }

      .st1 {
        fill: #fff;
      }
    </style>
  </defs>
  <path class="st0" d="M898.24,500.36c7.11-17.91,6.19-37.98,5.15-58.93-1.52-30.56-37.87-59.08-41.64-62.69l1.05-5.56c.73-2.12,1.48-4.21,2.3-6.15.82-1.94,1.81-3.99,2.77-5.98,1.7-3.52,2.44-10.3,3.47-21.05.09-.9.17-1.83.26-2.75.08-.16.15-.32.23-.48l-.19.08c.32-3.29.66-6.37.96-7.58.99-4.06,1.5-8.44,1.6-13.81.13-7.08-.88-12.86-3.02-17.3-.44-1.56-.97-3.01-1.61-4.33-.44-1.56-.97-3.01-1.61-4.33-.44-1.56-.97-3.01-1.61-4.33-1.27-4.55-3.39-8.1-6.36-10.61-27.45-29.33-34.93-27.31-34.93-27.31-1.05-.18-2.16-.27-3.29-.27-3.54,0-6.76.88-9.17,1.64-16.97,5.38-19.69,20.77-21.21,34.02-1.18-1.32-2.4-2.33-3.56-3.12l-9.9-8.67c-1.21-1.36-2.47-2.4-3.66-3.2l-9.81-8.59c-1.24-1.4-2.53-2.47-3.75-3.28-2.85-1.89-6-3.11-9.62-3.74-1.76-.3-3.66-.46-5.65-.46-4.82,0-9.5.88-13.63,1.65l-.21.04c-.77.14-1.52.29-2.26.42-3.8.67-8.25,1.74-12.45,4.53-7.09,4.71-11.83,13.29-12.38,22.4-.28,4.69.64,9.19,2.48,12.98.41,1.52.95,2.97,1.61,4.33.41,1.52.95,2.97,1.61,4.33.41,1.52.95,2.97,1.61,4.33,1.73,6.39,5.77,11.57,11.11,13.8-.1.24-.21.47-.31.71-2.63,6.34-3.63,13.04-4.51,18.96-.12.84-.25,1.68-.38,2.52-1.19,7.72-2.86,15.57-4.56,23.27-.82-7.87-2.85-14.75-5.28-20.8-.51-1.49-1.05-2.93-1.61-4.33-.51-1.49-1.05-2.93-1.61-4.33-.51-1.49-1.05-2.93-1.61-4.33-1.61-4.69-3.52-8.94-5.41-12.8-3.02-6.16-8.36-11.44-15.86-15.75-3.14-4.5-7.65-8.46-13.5-11.82-3.87-5.54-9.79-10.27-17.74-14.07-6.13-2.93-11.47-4.36-12.54-4.63l-.56-.14-.59-.07c-.39-.05-.77-.09-1.14-.13-1.44-.14-2.76-.22-4.05-.22-.81,0-1.61.03-2.38.09-4.85.36-8.24,1.8-11.24,3.08-2.05.87-4.18,1.77-7.35,2.52-6.23,1.46-13.47,3.81-19.87,10.07l-.96.94c-1.56,1.52-3.09,3.03-4.56,4.53l-32.39-48.08s0,0,0,0c-5.87-8.76-13.14-17.29-16.78-19.6-.36-.24-.72-.48-1.09-.69-.08-.05-.2-.13-.2-.13l.02.03c-4.4-2.41-9.11-2.9-10.96-2.98-.92-.15-1.85-.23-2.78-.23-7.29,0-14.64,4.79-18.72,12.21-2.69,4.89-3.8,9.97-4.88,14.89-.32,1.47-.63,2.86-.97,4.23-.69,2.74-1.55,5.45-2.47,8.32-1.08,3.4-2.21,6.91-3.05,10.58-2.05,8.88-1.8,16.7.73,23.23.23.6.48,1.17.75,1.73.25.89.54,1.75.87,2.6.23.6.48,1.17.75,1.73.25.89.54,1.75.87,2.6.13.34.28.66.43.99l.96,2.68c.08.22.14.45.22.66.03.09.07.17.11.25l8.45,23.45c-2.22-.81-3.87-1.3-4.39-1.45l-.57-.16-.59-.09c-.39-.06-.77-.11-1.14-.15-1.7-.21-3.26-.31-4.76-.31-.57,0-1.12.01-1.66.04-4.39.23-7.58,1.37-10.39,2.48-.06-.03-.08-.04-.14-.07-.37-1.64-.93-3.32-1.75-4.91-.42-1.65-1.05-3.33-1.95-4.9v-.03c-4.13-9.67-15.9-15.65-17.49-16.42.76-.33,1.51-.7,2.26-1.16,5.05-3.13,7.39-7.95,9.17-12.69,2.94-7.83,2.86-16.42,2.77-24.73-.05-4.74-.09-9.21.47-12.84.55-3.6,1.81-6.95,3.14-10.49,2.19-5.83,4.67-12.43,4.22-20.82-.29-5.31-1.31-9.77-3.03-13.39-.44-1.56-.98-3-1.61-4.33-.44-1.56-.98-3-1.61-4.33-.78-2.49-1.68-4.82-2.64-7.04-.46-1.16-.98-2.24-1.57-3.25-9.31-18.69-24.35-27.04-33.98-30.53-.42-.23-.77-.53-1.21-.73-1.8-.81-3.74-1.33-5.78-1.53-.65-.06-1.31-.1-1.97-.1-1.38,0-2.79.14-4.2.42-7.15,1.41-13.77,6.31-18.19,13.45-3.43,5.55-5.14,11.54-6.66,16.83-.5,1.76-1.01,3.54-1.51,5.33-.89-.48-1.82-.93-2.86-1.27-.09-.03-.18-.04-.26-.07-.9-1.29-1.84-2.56-2.81-3.78-2.43-3.06-5.57-6.4-10.42-7.97-1.2-.39-2.42-.64-3.75-.77-.66-.06-1.36-.1-2.07-.1-1.74,0-3.34.2-4.5.34-2.4.29-4.7.77-6.73,1.2-2.04.43-3.97.83-5.74,1-21.04,2.04-30.36,16.77-35.55,27.67-.53,1.11-1.07,2.28-1.61,3.48-1.17-2.13-2.6-4.16-4.23-6.1,0,0,0-.01.02-.02-3.42-5.14-20.19-20.18-33.39-29.83-2.1-1.69-4.45-3.28-6.98-4.78-2.26-1.42-4.27-2.53-5.84-3.15-1.58-.76-3.7-1.7-6.07-2.34-.63-.17-1.26-.27-1.88-.38-3.34-.88-3.73-.39-3.73-.39-1.1,0-2.21.1-3.29.29-2.01.36-3.68,1.01-4.93,1.5-.34.13-.91.35-1.15.43-.26.03-.86.03-1.27.03-1.9.01-4.49.03-7.41,1.06-11.05,3.91-12.33,16.21-12.75,20.26-.29,2.81-1.01,9.78,2.1,15.82.36,1.45.88,2.92,1.61,4.33.36,1.45.88,2.92,1.61,4.33.36,1.45.88,2.92,1.61,4.33.95,3.79,2.96,7.69,7.01,10.51,2.56,1.78,5.12,2.52,7.05,3.05,1.1,3.22,3.01,6.38,6.45,8.77.06.04.13.07.19.11-.17.8-.36,1.55-.54,2.01-.58.44-1.84,1.14-2.64,1.58-1.61.9-3.44,1.92-5.18,3.3-2.81,2.24-4.85,4.75-6.66,6.98-1.05,1.29-1.95,2.4-2.84,3.27-3.08,2.98-8.01,4.9-13.04,7.13-2.32.11-5.54.27-7.86.38-.65-.2-1.3-.37-1.96-.51-1.04-.23-2.13-.42-3.25-.55-1.48-.17-3.06-.25-4.85-.25s-3.52.08-4.83.16c-14.46.81-33.15,12.49-40.82,25.5-1.46,2.48-2.63,5.18-3.68,7.57-1.18,2.71-2.29,5.27-3.76,7.57-1.52,2.39-3.46,4.55-5.52,6.86-2.32,2.59-4.71,5.27-6.61,8.44-2.18,3.63-3.49,7.53-4.76,11.31-.82,2.46-1.6,4.77-2.59,6.98-2.8,6.24-8.1,14.96-13.63,20.37-1.15,1.13-2.29,2.12-3.53,3.21-4.64,4.05-9.43,8.24-10.14,17.08-.1,1.2-.1,2.37-.1,3.51,0,1.41,0,2.74-.2,3.96-.6,3.91-2.72,7.09-4.96,10.46-1.45,2.18-2.95,4.43-3.94,6.86-1.61,3.92-2.32,8.33-3,12.6-.55,3.41-1.12,6.94-2.14,10.2-1.82,5.8-4.21,11.52-6.53,17.05l-.16.39c-7.05,16.85-13.74,33.4-18.02,50.52-2.21,8.82-3.59,16.95-4.2,24.77-.06.75-.09,1.63-.11,2.56h0s0,.01,0,.02c-.06,3.08.08,6.79.33,9.29.46,4.74.98,9.18.28,13.55-.28,1.77-.74,3.56-1.23,5.46-.35,1.37-.71,2.78-1.01,4.23-1.11,5.42-1.26,10.88-1.41,16.16l-.58,21.35c-.06,2.21-.09,4.68.39,7.18.05.4.14.83.27,1.31,2.15,7.83,2.46,23.12,5.04,26.84.52,6.27,1.43,16.64,8.03,27.2,2.96,4.73,6.31,8.21,8.73,10.55l1.39,3.3,5.9,5.53c8.62,8.07,22.18,18.06,37.84,19.85,1.69.2,3.4.29,5.08.29.12,0,.23,0,.35,0,1.71.38,4.1.89,6.92,1.21,1.89.22,3.79.33,5.63.33,2.12,0,4.24-.15,6.28-.43,6.33-.88,12.15-2.73,17.3-5.49,4.03-2.16,17.79-10.12,26.08-22.16.22-.29.82-1.02,1.26-1.55,2.96-3.57,7.7-9.32,10.88-17.64.84,1.1,1.75,2.16,2.71,3.18,7.41,7.81,17.62,12.27,28.76,12.58l4.03.11c.42.01.82.02,1.22.02,3.79,0,7.48-.49,11.01-1.43,3.83,1.25,7.9,1.96,12.09,2.07l4.06.11c.41.01.8.02,1.2.02,2.64,0,5.22-.24,7.74-.71,4.05,2.74,8.69,4.82,13.81,6.03l4.46,1.05c2.35.55,4.72.9,7.09,1.05.44.3.87.59,1.32.88,4.42,2.87,9.21,5.36,14.25,7.41,5.8,2.36,11.56,3.9,17.19,4.6,2.74,2.53,5.84,4.76,9.28,6.64l6.8,3.72c2.88,1.57,5.8,2.81,8.77,3.7,3.19,2.96,6.88,5.46,11.02,7.39l3.74,1.74c3.92,1.82,7.95,3.02,12.06,3.6,3.07,2.75,6.59,5.08,10.48,6.88l3.61,1.68c5.71,2.65,11.68,4,17.74,4,.26,0,.53-.01.79-.02,6.34,5.28,13.98,9.02,22.58,10.98,5.11,1.16,9.79,1.74,14.32,1.75,1.63.58,3.31,1.07,5.03,1.47l3.93.9c3.19.73,6.43,1.1,9.61,1.1,6.05,0,11.92-1.32,17.27-3.85,6.95,3.07,14.63,4.62,22.89,4.62,3.7,0,7.59-.32,11.55-.95,15.02-2.4,25.33-8.73,32.25-15.31,2.52.38,5.07.58,7.65.58,7.19,0,14.41-1.48,21.47-4.4,4.22-1.75,8.13-3.86,11.7-6.31,1.27-.39,2.54-.85,3.79-1.37l3.54-1.47c2.27-.94,4.42-2.08,6.45-3.37,3.55-.15,7.14-.74,10.71-1.75l7.49-2.12c2.5-.71,4.86-1.59,7.09-2.64,1.6-.08,3.21-.24,4.81-.49l3.99-.64c3.88-.62,7.58-1.73,11.02-3.3,1.53.17,3.07.26,4.63.26,2.26,0,4.56-.18,6.83-.55l4.09-.65c1.96-.31,3.87-.76,5.72-1.32,4.33.83,8.98,1.25,13.82,1.25.81,0,1.64-.01,2.48-.03,21.17-.6,34.51-9.32,41.96-16.53,1.72-1.67,3.51-3.62,5.25-5.87,2.83,1.51,5.83,2.71,8.96,3.56,4.19,1.14,8.1,1.51,11.49,1.51,5.16,0,9.09-.88,10.84-1.27,4.07-.91,7.58-2.03,10.41-2.92,1.45-.46,3.09-.98,3.88-1.16.48-.11,1.51-.29,2.43-.44,2.15-.37,4.82-.83,7.87-1.59,8.01-1.99,14.51-5.01,19.74-7.43,2.05-.95,4.83-2.25,5.94-2.57,12.15-2.33,19.92-8.22,24.75-13.82,10.96-2.8,20.15-9.92,25.45-20.03,2.92-5.57,4.45-11.69,4.55-18.21.2-12.89-4.19-23.12-6.8-29.23-.32-.75-.73-1.69-1.01-2.39-.31-3-.94-7.92-3.12-13.61-3.67-9.54-9.74-15.41-14.96-18.92,18.63-11.24,32.45-27.3,40.2-46.82Z"/>
  <g>
    <path class="st1" d="M754.17,577.88c5.84-3.36,13.1-3.14,19.26-5.87,2.86-1.27,5.48-3.18,8.55-3.84,1.71-.37,3.48-.33,5.22-.45,4.37-.29,8.61-1.53,12.73-2.99,3.27-1.16,7.35-2.31,9.86.09.81.78,1.31,1.83,1.76,2.86,2.12,4.77,3.89,9.69,5.31,14.71.88-.45,1.62-1.13,2.34-1.81,4.1-3.8,8.24-7.64,11.46-12.21.65-.92,1.71-1.99,2.7-1.45.4.22.63.67.79,1.1.78,2.03.77,4.26,1.07,6.41,1.21,8.63,7.55,16.19,7.42,24.9,0,.4-.03.81-.22,1.17-.39.74-1.33.97-2.17,1.01-1.64.08-3.27-.29-4.88-.66-5.68-1.29-11.38-2.59-16.83-4.66-.16,2.31,1.38,4.34,2.4,6.41,1.36,2.76,1.86,5.94,1.41,8.99-.09.59-.21,1.18-.54,1.68-.72,1.07-2.16,1.33-3.42,1.57-9.78,1.85-18.21,8.13-27.86,10.53-3.17.79-6.43,1.14-9.61,1.87-4.84,1.1-9.46,3.02-14.3,4.1-1.37.3-2.81.54-4.16.17-1.88-.51-3.29-2.12-4.12-3.88-.83-1.76-1.18-3.7-1.68-5.58-1.28-4.84-3.54-9.38-4.95-14.18-1.16-3.93-1.74-8-2.32-12.05-.52-3.63-1.04-7.26-1.56-10.89-.2-1.39-.39-2.86.17-4.15.56-1.29,2.16-2.23,3.4-1.57"/>
    <path class="st1" d="M698.71,512.56c-3.92-.67-7.44-4.12-9.19-9.01-1.7-4.72-1.98-10.68-.87-18.2,1.6-10.86,10.73-44.34,14.18-54.34,1.05-3.04,2.14-6.19,3.15-9.28,5.29-16.23,9.1-33.35,12.79-49.9,2.06-9.22,4.18-18.76,5.64-28.21.13-.85.26-1.71.39-2.56.86-5.79,1.75-11.79,4.07-17.36.74-1.78,1.59-3.44,2.42-5.05,1-1.95,3.18-8.93,3.87-10.86.94-2.62,1.51-6.46.05-8.66-.67-1.01-1.58-1.57-2.94-1.8-1.43-.25-3.12-.09-4.92.08-2.03.19-4.13.38-6.16.03-.48-.08-.94-.19-1.37-.33-5.33-1.68-9.01-8.59-8.56-16.07.42-6.92,4.09-13.66,9.37-17.17,3.16-2.1,6.62-2.93,9.89-3.51.83-.15,1.68-.31,2.54-.47,5.32-1,11.36-2.13,16.89-1.18,2.67.46,4.97,1.35,7.02,2.71,4.55,3.02,7.11,9.23,7.4,17.97.28,8.56-1.64,17.16-2.49,20.47-.57,2.23-1.2,4.45-1.82,6.6-1.33,4.66-3.82,14.21-4.49,18.76-.39,2.65-.58,5.32-.77,8.14-.24,3.48-.49,7.09-1.16,10.69-.63,3.37-1.6,6.59-2.53,9.71-.81,2.7-1.58,5.26-2.14,7.87-.75,3.51-1.1,7.08-1.47,10.86-.12,1.22-.24,2.43-.37,3.65-1.54,14.01-8.61,33.52-13.6,46.52-.65,1.7-1.21,4.39,1,2.98,3.94-2.51,11.53-10.12,15.5-11.23,2.38-.66,4.62-1.29,6.75-2.32,1.18-.57,2.34-1.28,3.57-2.02,1.3-.79,2.64-1.6,4.04-2.27,2.05-.98,6.34-3.55,8.82-3.61.46-2.69,1.21-5.25,1.94-7.75.58-1.99,1.13-3.87,1.53-5.76.42-1.99.27-1.73.54-3.89.33-2.62.67-5.34,1.33-8.05.49-2.02,1.14-3.95,1.77-5.8.61-1.8,1.19-3.51,1.61-5.24.58-2.4.87-4.9,1.18-7.54.17-1.45.34-2.95.57-4.45,1.39-9.09,4.64-17.61,7.78-25.85,3.41-8.95,5.22-33.58,6.23-42.63l.14-1.24c1.5-13.64,2.92-26.53,16.82-30.94,2.61-.83,6.02-1.71,9.26-1.15,1.79.31,3.38,1.04,4.72,2.17,3.73,3.15,5.54,9.31,5.37,18.29-.09,4.85-.54,8.77-1.41,12.33-1.27,5.18-2.09,25.98-4.25,30.45-.99,2.06-2.02,4.19-2.91,6.29-1.4,3.32-2.59,6.9-3.75,10.36l-8.81,46.62c-1.13,3.4-2.3,6.91-2.87,10.38-.2,1.22-.21,2.85-.15,4.3,31.38,3.65,65.51,88.67,4.87,119.84-3.92,2.02-8.1,1.7-11.72,1.55-5.87-.25-11.93-.51-17.89-1.53,0,0,0,0,0,0-16.7-1.59-22.14-14.88-25.33-29.24-2.6-11.67-.34-26.55,6.45-46.4-3.13,1.14-8.2,3.99-10.18,5.1-1.13.64-2.03,1.14-2.6,1.42-12.9,6.36-30.46,40.61-39.35,54.45l-.58.9c-2.95,4.61-6.28,9.84-11.24,11.19-1.18.32-2.38.38-3.57.18ZM803.52,426.6c-1.28.03-4.33.6-5.81,5.21-3.56,11.07-6.18,22.6-7.77,34.27-.41,3.04-.81,6.5-.3,9.03.8,3.95,3.9,6.09,5.69,7,1.38.71,2.81,1.2,4.25,1.45,3.09.53,6.17-.05,8.91-1.68,4.25-2.53,7.83-7.89,9.13-13.67.88-3.93.91-8.63.08-13.97-1.87-12.13-7.02-22.15-14.17-27.63Z"/>
    <path class="st1" d="M327.03,264.24c-2.89-.28-5.27-1.03-7.27-2.29-2.45-1.53-4.27-4.19-4.87-7.11-.5-2.42-.09-4.76,1.16-6.58.72-1.04,1.89-1.69,3.17-1.77,1.54-12.8,6.45-24.36,10.59-33.06,4.86-10.22,12.67-22.16,30.09-23.85,2.14-.21,4.24-.65,6.48-1.11,1.99-.42,4.05-.85,6.16-1.1,1.46-.18,3.29-.4,5.1-.22.83.08,1.59.24,2.33.47,3.12,1.01,5.31,3.35,7.2,5.74,5.6,7.05,9.87,15.2,12.57,23.83,1.7-8.98,4.22-17.77,6.68-26.38,1.46-5.1,2.97-10.38,5.91-15.14,3.43-5.55,8.43-9.33,13.74-10.37,1.43-.28,2.85-.36,4.2-.23s2.53.45,3.65.96c7.53,3.41,8.07,13.51,8.25,16.83.38,6.98-1.74,12.62-3.79,18.08-1.39,3.71-2.84,7.55-3.5,11.84-.64,4.18-.6,8.92-.55,13.94.08,7.69.15,15.64-2.34,22.29-1.27,3.37-2.91,7.16-6.41,9.32-2.89,1.8-6.26,1.95-8.97,2.08l-82.93,3.86c-2.24.1-4.43.18-6.63-.04h0ZM367.64,219.33c-.2-.02-.4-.03-.61-.04-3.9-.18-8.15,1.65-11.35,4.9-2.82,2.86-5.01,6.84-6.51,11.82-.13.42-.42,1.4-.45,2.27l8.54-.39c5.6-.18,11.32-.88,16.85-1.56,2.59-.32,5.27-.65,7.91-.92.02,0,.04,0,.07,0-.79-4.3-2.47-8.04-4.88-10.83-2.58-2.99-6.07-4.9-9.57-5.24Z"/>
    <path class="st1" d="M332.72,528.21c-1.93-.41-3.59-1.01-5.07-1.84-.68-.38-1.31-.79-1.92-1.2-1.12-.74-2.17-1.44-3.19-1.65-.42-.08-.87-.1-1.34-.13-.61-.03-1.3-.06-2.01-.21-.21-.04-.41-.1-.61-.16-1.7-.53-3.02-1.88-3.64-3.57-7.76-2.71-12.66-9.01-14.95-19.22-.7-3.12-1.04-6.44-1-9.86.06-5.29,1.04-10.7,2.84-15.66,2-5.51,4.81-9.69,8.12-12.1,2.6-1.89,5.66-2.64,8.39-2.07,1.74.37,3.3,1.27,4.53,2.62,2.63,2.89,3.38,7.16,4.04,10.92.41,2.36.81,4.59,1.58,6.37,2.07,4.79,6.88,6.56,12.05,8.08.34.1.66.18.96.25,4.3.91,7.31-1.4,9.97-3.43.47-.36.92-.7,1.35-1.01,4.86-3.49,6.28-12.39,7.03-20.63.45-4.94.91-10.05.68-14.91-.29-5.93-1.57-11.53-2.94-17.46-1.07-4.64-2.17-9.44-2.76-14.44-.21-1.81-.35-3.63-.49-5.4-.19-2.47-.37-4.8-.73-7.08-.82-5.23-2.59-10.23-4.3-15.07l-7.3-20.63c-1.54-4.36-3.14-8.87-5.44-12.46-.95-1.48-2.05-2.86-3.2-4.32-2.49-3.13-5.07-6.38-6.37-10.96-2.29-8.07.11-20.86,10.63-31.21,4.48-4.14,10.03-3.74,15.8-2.91,12.18,1.74,47.54-3.27,68.67-6.26,5.5-.78,10.25-1.45,13.5-1.85,1.33-.16,2.98-.37,4.59-.03.94.2,1.79.57,2.53,1.09,3.56,2.53,4.14,7.88,4.24,12.79.08,3.91.04,7.73-1.22,11.44-2.53,7.46-8.84,11.1-13.89,12.02l-2.22.41c-29.36,5.4-44.47,7.84-47.55,7.68-4.98-.26-10.09.49-15.05,2.18,4.36,3.73,8.73,9.27,10.29,14.2.97,3.07,1.7,6.25,2.42,9.32.77,3.32,1.5,6.46,2.49,9.48.55,1.66,1.17,3.27,1.83,4.98,1.69,4.37,3.44,8.89,3.8,14.18.22,3.12-.08,6.19-.36,9.16-.14,1.46-.27,2.83-.35,4.2-.34,6.28.56,12.6,1.42,18.71l3.03,21.39c.61,4.31,1.31,9.2.48,14.24-.57,3.48-1.79,6.6-2.97,9.62-.49,1.24-.95,2.42-1.36,3.61-.86,2.49-1.53,5.07-2.23,7.79-.77,3.01-1.57,6.12-2.68,9.14-3.28,9-13.38,27.02-22.97,29.93-7.68,2.32-15.46,3.17-23.14,2.51-1.56-.13-2.84-.31-4.01-.56Z"/>
    <path class="st1" d="M441.41,601.83c-2.74-.34-5.41-.9-7.94-1.68-1.83-.57-4.23-1.42-6.53-3.04-6.84-4.84-10.27-14.13-13.18-23.24-3.12-9.75-1.64-20.05-.32-29.15l4.76-33.33c1.1-7.65,4.27-14.08,7.35-20.29.36-.73.72-1.45,1.07-2.17.93-1.9,1.76-3.89,2.64-6.01,1.38-3.31,2.81-6.74,4.66-9.84,8.11-13.62,20.37-17.44,26.96-18.5,3.07-.5,5.75-.59,8.2-.29,2.12.26,4.1.83,5.89,1.7,6.56,3.18,10.25,8.42,10.38,14.73.2,9.91-3.86,15.79-12.08,17.47-.33.07-.61.11-.79.18-2.39.93-5.13,1.22-8.03,1.52-5.23.55-10.63,1.12-12.89,5.5-.53,1.02-1.13,2.15-1.78,3.35-2.35,4.37-5.28,9.82-6.28,13.75-.72,2.81-.97,8.03-1.21,13.09-.26,5.44-.5,10.58-1.34,14.13-1.44,6.14-1.82,11.06-1.15,15.05.7,4.13,2.83,7.34,5.18,7.82.1.02.2.04.31.05.3.04.62.04.99.03.89-.05,1.88-.25,2.93-.47,1.26-.26,2.55-.53,3.93-.6h.21c.84-.04,1.71,0,2.67.12.81.1,1.6.24,2.37.38.7.12,1.37.25,2.04.33s1.25.11,1.78.08c.1,0,.19-.01.28-.02,4.04-.39,8.36-4.93,11.55-12.14,1.93-4.38,3.36-9.22,4.87-14.34.95-3.23,1.94-6.57,3.08-9.87.92-2.64,1.91-5.2,2.88-7.67,1.67-4.27,3.23-8.27,4.29-12.4.89-3.45,1.46-7.12,2.07-11,.7-4.45,1.41-9.05,2.67-13.65.76-2.77,1.67-5.36,2.54-7.86.65-1.86,1.27-3.62,1.81-5.39,2.91-9.61,3.62-20.39,4.32-30.81.32-4.77,1.43-10.74,2.61-17.07,1.46-7.83,6.77-28.48,6.32-33.57-.71-8.11-6.9-17.45-14.98-18.44-1.5-.18-3.24-.22-5.07-.13-6.2.33-12.45,2.13-17.15,4.94-7.61,4.55-13.75,12.36-16.84,21.42l-3.93,12.21c-2.14,6.37-5.35,15.95-12.32,16.32h-.1c-.34.02-.69,0-1.03-.04-4.68-.57-7.62-6.17-8.37-11.13-.75-4.98.06-9.83,1.05-14.34,2.97-13.51,5.04-21.11,11.23-32.41,2.37-4.33,7.68-9.45,12.91-14.32l.99-.92c5.31-4.99,11.25-6.78,16.87-7.97,3.77-.8,6.3-1.81,8.53-2.71,2.77-1.11,5.39-2.16,9.13-2.35,1.6-.09,3.31-.01,5.24.23.32.04.65.08.98.13l.19.03.18.05c.56.16,5.51,1.57,11.15,4.41,8.28,4.17,13.87,9.29,16.62,15.22,4.02,8.66,8.12,19.31,8.09,32.6-.03,13.54-1.13,33.44-1.6,41.37-.17,2.82-.62,5.62-1.36,8.32-2.96,10.96-4.96,20.02-5.35,24.25-.27,3.01-.41,6.2-.53,9.28-.18,4.44-.37,9.01-.98,13.69-1.39,10.67-4.72,20.35-7.94,29.7l-17.39,50.5c-1.51,4.38-3.07,8.91-5.32,13.19-3.19,6.04-7.44,10.89-12.29,14.02l-.31.2-.33.14c-12.03,4.98-21.83,7.52-30.83,7.99-3.15.17-6.24.07-9.2-.3Z"/>
    <path class="st1" d="M584.48,545.33c-2.74-.28-5.42-.79-7.97-1.51-1.84-.53-4.26-1.33-6.59-2.9-6.95-4.69-10.57-13.91-13.68-22.95-3.33-9.68-2.06-20.01-.94-29.13l4.05-33.43c.93-7.67,3.97-14.17,6.91-20.45.34-.73.69-1.47,1.02-2.19.88-1.92,1.67-3.93,2.51-6.06,1.31-3.34,2.66-6.8,4.45-9.94,7.82-13.79,19.99-17.87,26.56-19.07,3.06-.56,5.74-.71,8.19-.47,2.13.21,4.12.74,5.93,1.57,6.63,3.04,10.43,8.2,10.69,14.51.41,9.91-3.52,15.87-11.7,17.72-.33.08-.6.13-.78.19-2.37.98-5.1,1.32-8,1.69-5.21.66-10.61,1.35-12.77,5.77-.5,1.03-1.09,2.17-1.71,3.39-2.26,4.42-5.07,9.93-5.99,13.88-.66,2.83-.8,8.05-.93,13.11-.14,5.45-.28,10.59-1.04,14.16-1.31,6.17-1.58,11.1-.82,15.07.78,4.11,2.98,7.28,5.35,7.71.1.02.2.03.31.04.3.03.62.03.99,0,.88-.07,1.87-.29,2.92-.53,1.25-.29,2.53-.58,3.92-.68h.21c.84-.06,1.71-.04,2.68.06.81.08,1.6.21,2.38.33.7.11,1.38.22,2.04.28.69.07,1.26.08,1.78.05.1,0,.19-.02.28-.03,4.03-.47,8.25-5.1,11.28-12.38,1.84-4.42,3.16-9.28,4.57-14.44.88-3.25,1.8-6.61,2.87-9.93.86-2.66,1.8-5.24,2.71-7.73,1.57-4.3,3.05-8.34,4.03-12.49.82-3.47,1.31-7.15,1.83-11.04.6-4.47,1.22-9.08,2.38-13.71.7-2.79,1.55-5.39,2.38-7.91.61-1.88,1.19-3.65,1.69-5.43,2.7-9.67,3.19-20.46,3.66-30.9.22-4.77,1.2-10.77,2.24-17.12,1.29-7.86,6.16-28.62,5.6-33.7-.88-8.09-7.27-17.3-15.37-18.12-1.5-.15-3.25-.16-5.07-.02-6.19.46-12.4,2.39-17.04,5.3-7.51,4.71-13.48,12.65-16.38,21.78l-3.67,12.29c-2,6.41-5.01,16.07-11.97,16.58h-.1c-.34.03-.69.02-1.03-.01-4.69-.47-7.75-6.01-8.6-10.95-.86-4.96-.15-9.83.74-14.36,2.68-13.57,4.59-21.21,10.53-32.65,2.28-4.38,7.47-9.61,12.6-14.59l.97-.94c5.21-5.1,11.1-7.02,16.69-8.33,3.75-.88,6.26-1.95,8.47-2.89,2.75-1.17,5.34-2.27,9.08-2.55,1.6-.12,3.31-.08,5.25.11.32.03.65.07.98.11l.19.02.18.04c.57.14,5.55,1.45,11.24,4.17,8.37,3.99,14.07,8.99,16.94,14.86,4.2,8.57,8.53,19.13,8.79,32.42.26,13.54-.42,33.46-.72,41.4-.11,2.82-.5,5.63-1.18,8.35-2.73,11.02-4.53,20.13-4.83,24.35-.21,3.02-.27,6.2-.33,9.28-.09,4.44-.18,9.02-.68,13.7-1.16,10.7-4.28,20.44-7.3,29.87l-16.3,50.86c-1.41,4.41-2.88,8.98-5.04,13.3-3.06,6.11-7.2,11.05-11.99,14.27l-.31.21-.32.14c-11.92,5.23-21.66,7.98-30.65,8.65-3.14.23-6.24.2-9.21-.1Z"/>
    <path class="st1" d="M523.18,228.99c-5.99-1.23-11.91,3.14-14.86,8.49-2.94,5.36-3.73,11.58-5.22,17.51-1.59,6.32-4.03,12.42-5.49,18.77s-1.91,13.19.45,19.27c1.07,2.76,2.81,5.4,5.44,6.76,2.6,1.34,5.67,1.26,8.59,1.14,4.67-.19,9.92-.63,12.94-4.2,4.19-4.93,1.62-12.5,3.01-18.82.97-4.45,3.93-8.21,5.31-12.55,1.2-3.74,1.18-7.75,1.66-11.65.49-3.92,1.3-7.78,1.8-11.7,1.65-13.01-13.64-13.03-13.64-13.03Z"/>
    <path class="st1" d="M298.57,237.48c1.22-4.03,2.49-8.19,2.09-12.75-.4-4.53-2.35-8.4-4.23-12.14-.94-1.86-1.83-3.63-2.5-5.42-.55-1.47-.98-3.01-1.43-4.64-.56-2.02-1.14-4.12-2.01-6.18-3.37-8.07-10.69-14.84-21.76-20.13-1.32-.63-3.07-1.42-4.91-1.91-2.14-.57-4.09-.69-5.96-.36-1.37.24-2.58.72-3.66,1.14-.84.33-1.63.64-2.34.77-.72.14-1.59.14-2.51.15-1.57.01-3.36.02-5.19.67-7.02,2.49-7.93,11.27-8.28,14.58-.36,3.5-1.21,11.68,4.64,15.76,1.7,1.18,3.57,1.7,5.22,2.15,1.48.41,2.76.76,3.42,1.44.37.39.72,1.09,1.08,1.83.23.46.46.92.71,1.37,1.91,3.38,4.83,5.67,7.66,7.89,2.79,2.19,5.43,4.25,6.34,6.97.71,2.11.41,4.62-.25,7.72-.2.95-.39,2.02-.58,3.13-.51,2.94-1.08,6.27-2.21,8.1-.86,1.39-2.96,2.56-5,3.69-1.45.81-2.96,1.64-4.25,2.68-2.23,1.78-3.94,3.89-5.6,5.93-1.14,1.41-2.22,2.73-3.41,3.89-3.59,3.48-8.51,5.62-13.27,7.69-2.9,1.26-5.85,2.54-8.81,3.82-2.21-1.24-4.5-2.22-6.98-2.78-.8-.18-1.65-.32-2.53-.42-2.76-.32-5.74-.22-8.53-.06-12.28.69-28.81,11.05-35.37,22.18-1.25,2.13-2.29,4.52-3.3,6.83-1.23,2.83-2.51,5.76-4.26,8.51-1.82,2.85-4.03,5.32-6.17,7.71-2.21,2.47-4.3,4.8-5.87,7.43-1.8,3-2.94,6.39-4.14,9.98-.88,2.62-1.71,5.09-2.84,7.6-2.84,6.32-8.49,15.99-15.07,22.44-1.3,1.27-2.57,2.38-3.81,3.47-4.27,3.73-7.36,6.43-7.84,12.52-.08.95-.08,1.93-.08,2.99,0,1.59-.01,3.24-.28,4.96-.83,5.39-3.58,9.53-6.01,13.18-1.33,1.99-2.58,3.87-3.32,5.67-1.31,3.2-1.93,7.05-2.58,11.11-.59,3.65-1.19,7.43-2.36,11.15-1.91,6.1-4.37,11.97-6.74,17.64l-.17.4c-6.95,16.61-13.53,32.89-17.7,49.55-2.35,9.38-3.72,17.92-4.18,26.12-.16,2.85.14,5.9.46,9.14.46,4.63.93,9.41.14,14.36-.33,2.08-.84,4.07-1.35,6.06-.33,1.29-.67,2.63-.94,3.92-.99,4.84-1.13,9.99-1.27,14.98l-.58,21.35c-.06,2.23-.12,4.54.42,6.51.63,2.29,2.05,4.31,3.72,6.68,1.43,2.03,2.9,4.13,3.93,6.6,1.5,3.6,1.82,7.37,2.12,11.01.34,4.08.63,7.6,2.41,10.45.96,1.54,2.41,2.92,3.95,4.38,2.16,2.06,4.59,4.37,5.93,7.54,4.13,3.87,11.52,9.39,16.4,9.95.43.05.85.06,1.21.02,1.1-.11,2.26-.1,3.53.05,1.46.17,2.85.48,4.19.78,1.23.28,2.39.54,3.51.67.9.1,1.68.11,2.38,0,1.9-.26,3.42-.71,4.63-1.36,5.3-2.84,10.72-7.2,12.89-10.35,1.03-1.51,2.17-2.88,3.3-4.25,2.18-2.63,4.06-4.91,4.94-7.72,1.09-3.49,1.57-8,1.99-11.99.12-1.17.24-2.3.37-3.39,1.04-8.66,10.94-20.16,10.73-28.87-.12-4.81-.24-9.77-.15-14.68.11-5.99,1.44-10.98,2.73-15.8.75-2.8,1.53-5.7,2.09-8.88l.03-.19.04-.18c.8-3.38,8.01-33.39,14.24-44.67.65-1.18,1.32-2.35,1.99-3.52,2.22-3.9,4.32-7.58,5.7-11.41,1.02-2.83,1.69-5.88,2.41-9.11.37-1.68.76-3.41,1.2-5.15,2.72-10.71,3.89-14.09,10.38-23.11,2.58-3.58,5.17-5.89,7.67-8.11.78-.69,1.59-1.41,2.43-2.2,1.46-1.37,2.07-3.11,2.78-4.73,6.65-15.19-13.15-16.42-14.83-16.66-.12-.02-.25-.03-.37-.05l-1.67-.2c-9.43-1.08-19.02-.31-25.24,12.57-.37.77-.63,2.14-.88,3.47-.26,1.39-.56,2.97-1.09,4.57-1.12,3.36-2.67,6.84-4.89,10.95-1.69,3.13-3.52,6.15-5.29,9.06-2.08,3.42-4.04,6.66-5.77,10.02-4.63,9.02-7.37,18.83-10.28,29.22-2.28,8.16-4.64,16.6-8.02,24.71-.45,1.07-.91,2.14-1.37,3.21-.97,2.23-1.89,4.34-2.61,6.45-1.61,4.7-3.19,14.11-4.13,19.73-.59,3.54-.84,5.02-1.12,5.97-1.47,5.08-1.41,10.68-1.35,16.1l.2,18.26c.04,3.73-2.47,7-6.09,7.92-3.61.92-7.39-.74-9.14-4.03l-1.22-2.29c-1.63-3.07-3.48-6.54-3.88-10.56-.38-3.75.56-7.18,1.48-10.5.59-2.16,1.15-4.19,1.31-6.19.11-1.37-.08-2.92-.28-4.56-.13-1.08-.27-2.19-.34-3.38-1.85-29.84,1.82-42.22,4.25-50.42.65-2.18,1.21-4.06,1.51-5.81,1.6-9.15,3.25-18.62,6.23-27.84,3.06-9.44,7.4-18.26,11.59-26.78,1.68-3.42,3.42-6.96,5.03-10.44,5.04-10.92,6.74-20.38,8.75-33.57.42-2.72,1.42-5.11,2.38-7.43l5.5-13.15c7.42-17.76,15.1-36.12,26.4-52.36,2.75-3.95,5.89-7.96,10.26-10.61.96-.58,1.86-1.67,2.91-2.93,2.63-3.18,6.24-7.53,14.09-6.9.44.03.93.06,1.44.09.97.06,2.29.13,3.68.29,5.58.64,22.55,2.59,28.58,34.77.87,4.62.91,9.26.95,13.74.05,5.65.1,10.98,1.71,16,.19.59.43,1.21.72,1.98.52,1.36,1.12,2.89,1.41,4.57.5,2.89.04,5.63-.36,8.04-.27,1.64-.53,3.18-.49,4.64.02.55.1,1.09.19,1.72.18,1.19.39,2.54.13,4.14-.18,1.15-.6,2.18-.98,3.11-.19.48-.38.93-.49,1.3-1.06,3.62.55,8.12-1.75,11.24-11.37,15.48-10.87,27.01-12.64,34.88-.54,2.38-8.73,18.29-12.46,28.52l-.3.83-.51.72c-.94,1.32-1.41,3.6-1.87,5.8-.95,4.57-2.02,9.74-.89,13.83.88,3.16,3.24,6.31,5.52,9.36,1.61,2.15,3.28,4.38,5.1,5.46,1,.6,2.24.97,3.8,1.15,2.26.26,12.02,5.96,21.38.83,9.92-5.43,6.31-12.79,9.13-16.29,1.66-2.06,3.22-4,4.08-6.13.77-1.9,1.24-4.44,1.73-7.14.33-1.81.67-3.66,1.14-5.51l.76-2.62s.32-.95.32-.95l.52-.76c1.31-1.91,2.65-3.98,3.99-6.14l.44-.7c.77-1.27,1.46-2.42,2.08-3.5l6.12-21.98.66-.93c2.26-3.18,4.29-25.23,5.16-34.64.35-3.76.65-7.01.91-9.17.4-3.35-.14-6.82-.72-10.51-.54-3.45-1.1-7.01-.89-10.7.12-2.14.49-4.19.85-6.18.21-1.16.43-2.36.58-3.52.51-3.93.34-8.08.2-11.75-.12-2.93-.27-6.58-2.02-8.89-.38-.5-.9-1.02-1.41-1.53-.85-.85-1.81-1.81-2.58-3.06-2.17-3.52-1.83-7.44-1.54-10.9.07-.79.14-1.68.18-2.47.22-5.58-1.83-11.13-5.62-15.22-.72-.78-1.55-1.56-2.35-2.31-1.66-1.55-3.37-3.15-4.74-5.23-1.8-2.73-2.65-5.71-3.41-8.62,13-7.67,21.76-21.02,28.96-32l.18-.28,3.73-9.38c2.61-3.76,2.5-8.19,2.4-12.12-.04-1.45-.07-2.81.02-4.09.19-2.64,1-5.31,1.86-8.14Z"/>
    <g>
      <path class="st1" d="M229.45,615.21c-.46-.48-.67-1.2-.65-2.14l.62-23.22-1.84-4.68c-.39-.95-.58-1.74-.56-2.37.02-.68.32-1.27.91-1.78,2.57-2.13,5.6-3.85,9.09-5.17s7.38-1.92,11.67-1.81c7.01.19,12.03,1.87,15.05,5.04,3.03,3.17,4.47,7.37,4.33,12.6l-.6,22.43c-.03.94-.27,1.64-.72,2.1-.46.46-1.23.67-2.33.64l-4.08-.11c-1.05-.03-1.8-.28-2.26-.77-.46-.48-.67-1.2-.65-2.14l.61-22.67c.08-3.14-.64-5.5-2.16-7.08-1.53-1.58-4.02-2.42-7.47-2.52-4.39-.12-8.06.96-11,3.24l1.03,2.46c.39.9.66,1.69.8,2.38.14.68.19,1.55.17,2.59l-.57,21.1c-.03.94-.27,1.64-.72,2.1-.46.46-1.23.67-2.33.64l-4.08-.11c-1.05-.03-1.8-.28-2.26-.77Z"/>
      <path class="st1" d="M293.16,620.12l5.67-24.06c.62-2.65.57-4.66-.15-6.04-.72-1.38-2.36-2.37-4.9-2.97-1.27-.3-2.63-.46-4.08-.48-1.45-.02-2.68.09-3.71.34-.41.12-.76.14-1.07.07-.36-.08-.6-.43-.72-1.06l-.86-4.56c0-.43,0-.67,0-.72.08-.36.53-.65,1.34-.89,3.38-.87,7.38-.76,12.01.33,5.19,1.22,8.78,3.3,10.74,6.24,1.97,2.94,2.38,6.85,1.22,11.74l-5.74,24.37c-.4,1.68-1.49,2.31-3.27,1.89l-4.51-1.06c-1.73-.41-2.4-1.45-2-3.13Z"/>
      <path class="st1" d="M320.25,631.42c-2.46-1.59-4.48-3.28-6.08-5.06-.7-.79-.95-1.4-.78-1.84.08-.19.25-.41.51-.64l3.4-2.94c.49-.37.88-.49,1.17-.37.1.04.4.28.9.7,1.21,1.34,2.78,2.7,4.73,4.09,1.95,1.39,3.89,2.47,5.83,3.26,2.57,1.05,4.68,1.52,6.32,1.43,1.65-.09,2.79-.91,3.42-2.46.39-.97.47-1.84.22-2.62-.25-.78-.76-1.57-1.54-2.36-.78-.8-2.1-2.03-3.96-3.69-.64-.65-1.48-1.42-2.54-2.3-3.33-3.05-5.65-5.87-6.94-8.46-1.29-2.59-1.35-5.33-.16-8.24,1.46-3.59,4.03-5.72,7.73-6.39,3.69-.67,8.1.04,13.24,2.13,2.71,1.1,5.02,2.31,6.91,3.62,1.9,1.31,3.62,2.84,5.16,4.6.65.77.87,1.4.67,1.88-.1.24-.32.49-.65.75l-2.94,2.44c-.48.48-.91.65-1.3.49-.29-.12-.57-.34-.83-.68-1.03-1.21-2.38-2.38-4.04-3.51-1.66-1.13-3.46-2.09-5.4-2.87-2.62-1.07-4.7-1.53-6.25-1.4-1.55.13-2.65,1-3.3,2.6-.43,1.07-.43,2.1.01,3.1.44,1,1.15,1.99,2.13,2.99.98.99,2.54,2.4,4.67,4.23.47.36,1,.8,1.58,1.32,2.59,2.24,4.49,4.19,5.71,5.84,1.22,1.65,1.9,3.27,2.05,4.86.15,1.58-.2,3.39-1.02,5.43-1.34,3.3-3.84,5.34-7.5,6.14-3.66.8-8.05.15-13.19-1.94-2.86-1.16-5.52-2.54-7.98-4.13Z"/>
      <path class="st1" d="M355.93,645.63c-.29-1.17.01-2.56.89-4.16l15.78-28.85c.5-.92,1.08-1.45,1.73-1.6.65-.15,1.48.05,2.49.6l3.1,1.7c1.01.55,1.64,1.15,1.88,1.79.24.64.12,1.42-.38,2.34l-13.67,24.99c-.38.69-.53,1.22-.46,1.58.07.37.42.72,1.07,1.07l1.86,1.02c.73.4,1.16.82,1.29,1.24.12.43,0,.98-.38,1.67l-1.66,3.03c-.43.78-.89,1.2-1.4,1.25-.51.05-1.26-.2-2.27-.75l-6.88-3.76c-1.7-.93-2.69-1.98-2.97-3.15Z"/>
      <path class="st1" d="M381.8,661.02c-.2-.61-.11-1.35.29-2.2l9.96-21.42c2.07-4.46,5.23-7.27,9.47-8.45,4.24-1.17,9.25-.41,15.04,2.28,5.79,2.69,9.6,6.04,11.43,10.03,1.83,4,1.71,8.23-.36,12.68l-9.96,21.42c-.4.85-.91,1.39-1.53,1.62-.63.23-1.44.11-2.43-.35l-3.63-1.69c-.95-.44-1.54-.97-1.77-1.6-.23-.63-.14-1.37.25-2.22l10.03-21.56c1.15-2.47,1.28-4.67.39-6.61-.89-1.94-2.75-3.57-5.6-4.9-5.79-2.69-9.84-1.55-12.16,3.43l-3.71,7.97c2.66-1.76,5.59-1.9,8.77-.42l2.28,1.06c.52.24.84.52.95.83.11.31.05.73-.19,1.25l-1.82,3.91c-.29.62-.6.99-.95,1.12-.35.13-.78.07-1.3-.17l-2.42-1.13c-2.23-1.04-4.27-1.09-6.11-.16-1.85.93-3.32,2.58-4.42,4.95l-1.09,2.35c-.4.85-.9,1.4-1.5,1.64-.6.24-1.4.13-2.4-.34l-3.77-1.75c-.95-.44-1.53-.97-1.73-1.58Z"/>
      <path class="st1" d="M438.79,683.87c-1.98-2.62-2.54-5.8-1.69-9.52,1.05-4.59,3.31-7.51,6.78-8.76,3.48-1.25,7.94-1.25,13.4,0l12.24,2.79.54-2.37c.66-2.91.36-5.22-.92-6.93-1.27-1.71-3.9-3.02-7.88-3.93-2.04-.46-4.11-.69-6.2-.69-2.09,0-4.04.2-5.85.6-.66.07-1.04.09-1.14.06-.36-.08-.67-.47-.94-1.18l-1.09-4.03c-.12-.4-.14-.78-.06-1.14.11-.46.47-.75,1.09-.88,2.22-.57,4.84-.83,7.86-.78,3.02.04,6.06.42,9.12,1.11,6.68,1.52,11.27,4.01,13.76,7.44,2.49,3.44,3.09,7.96,1.81,13.57l-5.01,21.96c-.21.92-.58,1.56-1.12,1.92-.54.36-1.34.42-2.41.17l-3.98-.91c-1.02-.23-1.71-.63-2.06-1.19-.35-.56-.43-1.3-.22-2.22l3.12-13.69-12.62-2.88c-2.75-.63-4.83-.66-6.22-.09-1.39.57-2.32,1.9-2.8,3.99-.43,1.89-.24,3.33.59,4.32.82.99,2.25,1.72,4.29,2.19,1.73.4,3.35.47,4.86.22h.65c.41.08.61.48.61,1.17l.2,4.07c.02.17,0,.35-.05.55-.1.46-.49.75-1.16.86-2.1.49-5.01.31-8.73-.54-3.88-.88-6.8-2.64-8.78-5.26Z"/>
      <path class="st1" d="M449.35,641.76c-.39-.45-.55-1.16-.49-2.16l.12-1.8c.07-.99.32-1.7.77-2.11.45-.42,1.19-.59,2.24-.52l12.53.83.39-5.95c.06-.83.28-1.41.66-1.73.39-.31,1-.44,1.83-.39l2.43.16c.84.05,1.43.26,1.77.63.34.36.49.96.43,1.8l-.39,5.95,4.62.31.39-5.95c.05-.83.28-1.41.66-1.73.39-.31,1-.44,1.83-.39l2.43.16c.84.05,1.42.26,1.77.63.34.36.49.96.43,1.8l-.62,9.32c-.1,1.52-.44,2.54-1.03,3.08-.59.54-1.66.76-3.23.65l-27.41-1.81c-1.04-.07-1.76-.33-2.15-.77Z"/>
      <path class="st1" d="M476.39,624.35c-.39-.42-.55-1.2-.48-2.35l.47-7.44c.07-1.1.33-1.83.77-2.19.44-.36,1.24-.51,2.39-.44l2.27.14c1.15.07,1.93.32,2.35.74.42.42.59,1.18.52,2.27l-.47,7.44c-.07,1.15-.34,1.91-.81,2.27-.47.36-1.28.51-2.43.44l-2.27-.14c-1.15-.07-1.92-.32-2.31-.74Z"/>
      <path class="st1" d="M503.9,692.16c-3.53-2.03-5.69-5.53-6.49-10.49l-1.12-6.97c-.13-.83-.04-1.48.28-1.95.32-.47.95-.79,1.88-.94l10.69-1.71c.77-.12,1.34-.04,1.71.24.36.29.61.82.73,1.59l.38,2.4c.12.77.06,1.36-.2,1.74-.26.39-.8.64-1.62.78l-4.26.68.56,3.49c.74,4.65,4.24,6.47,10.49,5.47,2.69-.43,4.74-1.25,6.16-2.46,1.42-1.21,2.3-2.9,2.65-5.07.34-2.17.23-5.04-.34-8.61-.79-4.91-2.32-8.3-4.61-10.19-2.29-1.89-5.76-2.46-10.41-1.71-4.39.7-8.14,2.12-11.24,4.26-.48.34-.82.53-1.02.56-.41.07-.86-.21-1.32-.82l-2.51-3.25c-.26-.33-.43-.67-.48-1.04-.07-.41.16-.85.67-1.3,3.83-2.89,9.26-4.9,16.28-6.02,7.08-1.13,12.63-.26,16.67,2.62,4.04,2.88,6.64,7.98,7.82,15.32,1.18,7.39.31,13.13-2.61,17.23-2.92,4.1-7.66,6.67-14.22,7.72-6.15.98-10.99.46-14.52-1.57Z"/>
      <path class="st1" d="M560.1,677.56c-3.53-1.28-6.22-4.15-8.06-8.6l-9.42-22.77c-.38-.92-.45-1.68-.22-2.29.23-.61.83-1.11,1.8-1.51l3.77-1.56c1.89-.78,3.2-.27,3.94,1.51l9.36,22.62c1.02,2.47,2.38,4.01,4.08,4.64,1.7.63,3.81.42,6.32-.62,1.74-.72,3.23-1.76,4.48-3.13,1.25-1.36,2.09-2.82,2.53-4.36.44-1.54.4-2.94-.12-4.2l-9.18-22.19c-.38-.92-.45-1.68-.22-2.29.23-.61.83-1.11,1.8-1.51l3.84-1.59c.97-.4,1.76-.47,2.37-.22.62.25,1.11.84,1.49,1.76l13.65,32.99c.34.82.42,1.5.24,2.02-.18.53-.7.97-1.57,1.33l-3.55,1.47c-.73.3-1.29.38-1.69.23-.4-.15-.75-.52-1.06-1.13l-1.2-2.9c-1.61,5.14-5.51,8.99-11.7,11.55-4.25,1.76-8.15,2-11.68.71Z"/>
      <path class="st1" d="M608.22,660.83c-1.02-.63-1.78-1.83-2.28-3.59l-7.93-28.01c-.81-2.87-1.24-5.24-1.28-7.1-.04-1.86.39-3.63,1.27-5.29l2.23-4.22-11.55,3.27c-.81.23-1.41.24-1.83.03-.41-.21-.73-.72-.96-1.52l-.86-3.02c-.23-.8-.23-1.43,0-1.88.23-.44.74-.78,1.55-1.01l20.84-5.9c.91-.26,1.62-.27,2.15-.04.53.23.92.8,1.18,1.71l.62,2.19c.2.7.24,1.25.14,1.63-.11.39-.38.96-.81,1.74l-3.05,5.35c-.79,1.42-1.17,3.02-1.13,4.8.04,1.78.43,3.98,1.17,6.6l6.71,23.71c.21.75.47,1.24.78,1.45.31.21.81.22,1.51.02l2.04-.58c.8-.23,1.4-.23,1.79-.02.39.22.69.7.9,1.46l.94,3.32c.24.86.2,1.48-.12,1.87-.33.39-1.04.74-2.15,1.06l-7.55,2.14c-1.86.53-3.31.47-4.33-.16Z"/>
      <path class="st1" d="M634.22,654.37c-.51-.39-.84-1.06-.99-1.99l-5.59-35.03c-.16-.98-.05-1.74.31-2.27.36-.54,1.06-.89,2.1-1.05l4.03-.64c2.01-.32,3.17.47,3.48,2.39l1.61,10.07,10.85-1.73c2.27-.36,3.73-1.18,4.38-2.45.64-1.27.79-2.99.45-5.16l-.54-3.41c-.31-1.91.52-3.02,2.49-3.34l4.11-.65c1.03-.17,1.82-.05,2.36.34.54.39.89,1.08,1.04,2.06l.57,3.56c.91,5.68-.57,9.39-4.42,11.12,4.23.6,6.78,3.66,7.66,9.19l1.78,11.16c.15.93.04,1.66-.32,2.2-.37.54-1.09.89-2.17,1.06l-4.11.65c-1.03.17-1.82.05-2.36-.34-.54-.39-.88-1.05-1.03-1.98l-1.73-10.85c-.35-2.17-1.02-3.73-2.02-4.68-1-.95-2.51-1.27-4.52-.95l-11.24,1.79,2.77,17.36c.15.93.03,1.66-.36,2.2-.39.54-1.13.9-2.21,1.07l-4.03.64c-1.03.16-1.81.05-2.32-.35Z"/>
      <path class="st1" d="M686.27,648.63c-2.42-.48-4.69-1.24-6.82-2.28-.8-.4-1.2-.86-1.22-1.38,0-.26.09-.58.29-.95l1.94-3.67c.35-.64.68-.96.99-.97.21,0,.58.12,1.11.36,3.44,1.47,7.13,2.16,11.05,2.05,9.1-.26,13.52-5.12,13.25-14.58-.14-5.12-1.38-8.77-3.72-10.93-2.34-2.16-5.73-3.18-10.17-3.05-4.08.11-7.61,1-10.6,2.65-.52.28-.9.42-1.17.42-.37.01-.72-.29-1.05-.91l-2.06-3.55c-.22-.36-.33-.7-.34-1.01-.01-.52.34-.98,1.06-1.36,2.06-1.21,4.26-2.12,6.6-2.74,2.34-.62,5.02-.97,8.06-1.05,7.42-.21,13.14,1.45,17.13,4.98,4,3.53,6.1,8.95,6.3,16.27.2,7.17-1.64,12.62-5.51,16.36-3.87,3.75-9.47,5.72-16.79,5.93-3.14.09-5.92-.11-8.34-.59Z"/>
    </g>
  </g>
</svg>